<mxfile host="app.diagrams.net" agent="Mozilla/5.0 (Windows NT 10.0; Win64; x64) AppleWebKit/537.36 (KHTML, like Gecko) Chrome/131.0.0.0 Safari/537.36" version="25.0.3">
  <diagram name="Página-1" id="LNeB29zAzY3tVEtzIFbt">
    <mxGraphModel dx="1434" dy="780" grid="1" gridSize="10" guides="1" tooltips="1" connect="1" arrows="1" fold="1" page="1" pageScale="1" pageWidth="1169" pageHeight="827" math="0" shadow="0">
      <root>
        <mxCell id="0" />
        <mxCell id="1" parent="0" />
        <mxCell id="fCkfP0nTno-0w-6p4mU8-6" style="edgeStyle=orthogonalEdgeStyle;rounded=0;orthogonalLoop=1;jettySize=auto;html=1;" edge="1" parent="1" source="fCkfP0nTno-0w-6p4mU8-1" target="fCkfP0nTno-0w-6p4mU8-3">
          <mxGeometry relative="1" as="geometry" />
        </mxCell>
        <mxCell id="fCkfP0nTno-0w-6p4mU8-1" value="INICIO" style="strokeWidth=2;html=1;shape=mxgraph.flowchart.start_1;whiteSpace=wrap;" vertex="1" parent="1">
          <mxGeometry x="535" y="100" width="100" height="60" as="geometry" />
        </mxCell>
        <mxCell id="fCkfP0nTno-0w-6p4mU8-2" value="FIM" style="strokeWidth=2;html=1;shape=mxgraph.flowchart.start_1;whiteSpace=wrap;" vertex="1" parent="1">
          <mxGeometry x="535" y="690" width="100" height="60" as="geometry" />
        </mxCell>
        <mxCell id="fCkfP0nTno-0w-6p4mU8-7" style="edgeStyle=orthogonalEdgeStyle;rounded=0;orthogonalLoop=1;jettySize=auto;html=1;" edge="1" parent="1" source="fCkfP0nTno-0w-6p4mU8-3" target="fCkfP0nTno-0w-6p4mU8-4">
          <mxGeometry relative="1" as="geometry" />
        </mxCell>
        <mxCell id="fCkfP0nTno-0w-6p4mU8-3" value="INICIAL" style="shape=parallelogram;html=1;strokeWidth=2;perimeter=parallelogramPerimeter;whiteSpace=wrap;rounded=1;arcSize=12;size=0.23;" vertex="1" parent="1">
          <mxGeometry x="535" y="190" width="100" height="40" as="geometry" />
        </mxCell>
        <mxCell id="fCkfP0nTno-0w-6p4mU8-8" style="edgeStyle=orthogonalEdgeStyle;rounded=0;orthogonalLoop=1;jettySize=auto;html=1;" edge="1" parent="1" source="fCkfP0nTno-0w-6p4mU8-4" target="fCkfP0nTno-0w-6p4mU8-5">
          <mxGeometry relative="1" as="geometry" />
        </mxCell>
        <mxCell id="fCkfP0nTno-0w-6p4mU8-4" value="MESES" style="shape=parallelogram;html=1;strokeWidth=2;perimeter=parallelogramPerimeter;whiteSpace=wrap;rounded=1;arcSize=12;size=0.23;" vertex="1" parent="1">
          <mxGeometry x="535" y="250" width="100" height="40" as="geometry" />
        </mxCell>
        <mxCell id="fCkfP0nTno-0w-6p4mU8-11" style="edgeStyle=orthogonalEdgeStyle;rounded=0;orthogonalLoop=1;jettySize=auto;html=1;" edge="1" parent="1" source="fCkfP0nTno-0w-6p4mU8-5" target="fCkfP0nTno-0w-6p4mU8-10">
          <mxGeometry relative="1" as="geometry" />
        </mxCell>
        <mxCell id="fCkfP0nTno-0w-6p4mU8-5" value="TAXA" style="shape=parallelogram;html=1;strokeWidth=2;perimeter=parallelogramPerimeter;whiteSpace=wrap;rounded=1;arcSize=12;size=0.23;" vertex="1" parent="1">
          <mxGeometry x="535" y="310" width="100" height="40" as="geometry" />
        </mxCell>
        <mxCell id="fCkfP0nTno-0w-6p4mU8-9" style="edgeStyle=orthogonalEdgeStyle;rounded=0;orthogonalLoop=1;jettySize=auto;html=1;exitX=0.5;exitY=1;exitDx=0;exitDy=0;" edge="1" parent="1" source="fCkfP0nTno-0w-6p4mU8-5" target="fCkfP0nTno-0w-6p4mU8-5">
          <mxGeometry relative="1" as="geometry" />
        </mxCell>
        <mxCell id="fCkfP0nTno-0w-6p4mU8-13" style="edgeStyle=orthogonalEdgeStyle;rounded=0;orthogonalLoop=1;jettySize=auto;html=1;" edge="1" parent="1" source="fCkfP0nTno-0w-6p4mU8-10" target="fCkfP0nTno-0w-6p4mU8-12">
          <mxGeometry relative="1" as="geometry" />
        </mxCell>
        <mxCell id="fCkfP0nTno-0w-6p4mU8-10" value="FINAL = INCIAL" style="rounded=1;whiteSpace=wrap;html=1;absoluteArcSize=1;arcSize=14;strokeWidth=2;" vertex="1" parent="1">
          <mxGeometry x="511" y="378" width="147.5" height="36" as="geometry" />
        </mxCell>
        <mxCell id="fCkfP0nTno-0w-6p4mU8-15" style="edgeStyle=orthogonalEdgeStyle;rounded=0;orthogonalLoop=1;jettySize=auto;html=1;" edge="1" parent="1" source="fCkfP0nTno-0w-6p4mU8-12" target="fCkfP0nTno-0w-6p4mU8-14">
          <mxGeometry relative="1" as="geometry" />
        </mxCell>
        <mxCell id="fCkfP0nTno-0w-6p4mU8-16" value="SIM" style="edgeLabel;html=1;align=center;verticalAlign=middle;resizable=0;points=[];" vertex="1" connectable="0" parent="fCkfP0nTno-0w-6p4mU8-15">
          <mxGeometry x="0.08" y="-1" relative="1" as="geometry">
            <mxPoint y="-4" as="offset" />
          </mxGeometry>
        </mxCell>
        <mxCell id="fCkfP0nTno-0w-6p4mU8-12" value="CONTADOR=0;&amp;nbsp; &amp;lt; MESES, +1" style="rounded=1;whiteSpace=wrap;html=1;absoluteArcSize=1;arcSize=14;strokeWidth=2;" vertex="1" parent="1">
          <mxGeometry x="480" y="440" width="210" height="30" as="geometry" />
        </mxCell>
        <mxCell id="fCkfP0nTno-0w-6p4mU8-17" style="edgeStyle=orthogonalEdgeStyle;rounded=0;orthogonalLoop=1;jettySize=auto;html=1;entryX=0;entryY=0.5;entryDx=0;entryDy=0;" edge="1" parent="1" source="fCkfP0nTno-0w-6p4mU8-14" target="fCkfP0nTno-0w-6p4mU8-12">
          <mxGeometry relative="1" as="geometry">
            <Array as="points">
              <mxPoint x="410" y="535" />
              <mxPoint x="410" y="455" />
            </Array>
          </mxGeometry>
        </mxCell>
        <mxCell id="fCkfP0nTno-0w-6p4mU8-19" style="edgeStyle=orthogonalEdgeStyle;rounded=0;orthogonalLoop=1;jettySize=auto;html=1;" edge="1" parent="1" source="fCkfP0nTno-0w-6p4mU8-14" target="fCkfP0nTno-0w-6p4mU8-18">
          <mxGeometry relative="1" as="geometry" />
        </mxCell>
        <mxCell id="fCkfP0nTno-0w-6p4mU8-14" value="FINAL += FINAL * (TAXA/100)" style="rounded=1;whiteSpace=wrap;html=1;absoluteArcSize=1;arcSize=14;strokeWidth=2;" vertex="1" parent="1">
          <mxGeometry x="480" y="520" width="210" height="30" as="geometry" />
        </mxCell>
        <mxCell id="fCkfP0nTno-0w-6p4mU8-22" style="edgeStyle=orthogonalEdgeStyle;rounded=0;orthogonalLoop=1;jettySize=auto;html=1;" edge="1" parent="1" source="fCkfP0nTno-0w-6p4mU8-18" target="fCkfP0nTno-0w-6p4mU8-2">
          <mxGeometry relative="1" as="geometry" />
        </mxCell>
        <mxCell id="fCkfP0nTno-0w-6p4mU8-18" value="INICIAL&lt;div&gt;MESES&lt;/div&gt;&lt;div&gt;TAXA&lt;/div&gt;&lt;div&gt;FINAL&lt;/div&gt;" style="strokeWidth=2;html=1;shape=mxgraph.flowchart.display;whiteSpace=wrap;" vertex="1" parent="1">
          <mxGeometry x="520" y="580" width="130" height="80" as="geometry" />
        </mxCell>
        <mxCell id="fCkfP0nTno-0w-6p4mU8-20" style="edgeStyle=orthogonalEdgeStyle;rounded=0;orthogonalLoop=1;jettySize=auto;html=1;entryX=1;entryY=0.5;entryDx=0;entryDy=0;entryPerimeter=0;" edge="1" parent="1" source="fCkfP0nTno-0w-6p4mU8-12" target="fCkfP0nTno-0w-6p4mU8-18">
          <mxGeometry relative="1" as="geometry">
            <Array as="points">
              <mxPoint x="730" y="455" />
              <mxPoint x="730" y="620" />
            </Array>
          </mxGeometry>
        </mxCell>
        <mxCell id="fCkfP0nTno-0w-6p4mU8-21" value="NÃO" style="edgeLabel;html=1;align=center;verticalAlign=middle;resizable=0;points=[];" vertex="1" connectable="0" parent="fCkfP0nTno-0w-6p4mU8-20">
          <mxGeometry x="-0.8667" relative="1" as="geometry">
            <mxPoint as="offset" />
          </mxGeometry>
        </mxCell>
      </root>
    </mxGraphModel>
  </diagram>
</mxfile>
